<svg xmlns="http://www.w3.org/2000/svg" width="400" height="120" viewBox="0 0 400 120"><defs><style>.cls-1,.cls-12{fill:#fff}.cls-12{stroke:#fff;stroke-linecap:round;stroke-width:1.5px}.cls-15{opacity:.73}</style></defs><path class="cls-1" d="M143.2 2.64h14a2 2 0 012 2v10a2 2 0 01-2 2h-14a2 2 0 01-2-2v-10a2 2 0 012-2z"/><path d="M146.4 13.44a2.81 2.81 0 01-2.1-1 3.91 3.91 0 01.1-4.8c.5-.6 2-1.7 4.6.2l-.6.8c-1.4-1-2.6-1.1-3.3-.3a3 3 0 00-.1 3.5c.7.9 1.9.8 3.4-.1l.5.9a5.28 5.28 0 01-2.5.8zm7.5 0a2.81 2.81 0 01-2.1-1 3.91 3.91 0 01.1-4.8c.5-.6 2-1.7 4.6.2l-.5.8c-1.4-1-2.6-1.1-3.3-.3a3 3 0 00-.1 3.5c.7.9 1.9.8 3.4-.1l.5.9a6.07 6.07 0 01-2.6.8z" fill="#fff"/><path class="cls-1" d="M60.3 76.64a1 1 0 01.6 1.4.9.9 0 01-.6.6L30 96.14c-1 .6-1.7.1-1.7-1v-35c0-1.1.8-1.5 1.7-1z"/><path d="M2.5 78.64a37.5 37.5 0 1137.5 37.5 37.51 37.51 0 01-37.5-37.5z" style="isolation:isolate" opacity=".75" stroke="#fff" fill="none" stroke-width="5"/><path class="cls-1" d="M140.3 76.64a1 1 0 01.6 1.4.9.9 0 01-.6.6L110 96.14c-1 .6-1.7.1-1.7-1v-35c0-1.1.8-1.5 1.7-1z"/><path d="M82.5 78.64a37.5 37.5 0 1137.5 37.5 37.51 37.51 0 01-37.5-37.5z" stroke="#fff" fill="none" stroke-width="5"/><circle class="cls-1" cx="201.9" cy="46.74" r="8.1"/><circle cx="233.9" cy="78.64" r="5" style="isolation:isolate" opacity=".4" fill="#fff"/><circle cx="201.9" cy="110.54" r="6" style="isolation:isolate" opacity=".6" fill="#fff"/><circle cx="170.1" cy="78.64" r="7" style="isolation:isolate" opacity=".8" fill="#fff"/><circle cx="178.2" cy="55.94" r="7.5" style="isolation:isolate" opacity=".9" fill="#fff"/><circle cx="226.3" cy="55.74" r="4.5" style="isolation:isolate" opacity=".3" fill="#fff"/><circle cx="225.8" cy="102.44" r="5.5" style="isolation:isolate" opacity=".5" fill="#fff"/><circle cx="178.2" cy="102.44" r="6.5" style="isolation:isolate" opacity=".7" fill="#fff"/><path class="cls-1" d="M178 9.04a.81.81 0 01-.9.7c-.1 0-.2 0-.2-.1l-4.9-1.8c-.5-.2-.6-.6-.1-.8l6.2-3.6c.5-.3.8-.1.7.5l-.8 5.1zm-161.5-.9a.52.52 0 01.2.8c-.1.1-.1.2-.2.2l-11.4 7c-.5.3-.8.1-.8-.5v-14c0-.5.4-.8.8-.5zM24 .64h2.2a.94.94 0 011 1v14a.94.94 0 01-1 1H24a.94.94 0 01-1-1v-14a1 1 0 011-1zm9.8 0H36a.94.94 0 011 1v14a.94.94 0 01-1 1h-2.2a.94.94 0 01-1-1v-14a1 1 0 011-1zm47.2.4a.94.94 0 011-1h5.4c.6 0 .7.3.3.7l-6 6c-.4.4-.7.3-.7-.3zm0 15.8a.94.94 0 001 1h5.4c.6 0 .7-.3.3-.7l-6-6c-.4-.4-.7-.3-.7.3zm17.8-15.8a.94.94 0 00-1-1h-5.4c-.6 0-.7.3-.3.7l6 6c.4.4.7.3.7-.3zm0 15.8a.94.94 0 01-1 1h-5.4c-.6 0-.7-.3-.3-.7l6-6c.4-.4.7-.3.7.3zm13.9-12.2a.94.94 0 001 1h4.1c.6 0 .7-.3.3-.7l-4.7-4.7c-.4-.4-.7-.3-.7.3zm-7.1 1a.94.94 0 001-1V.54c0-.6-.3-.7-.7-.3l-4.7 4.7c-.4.4-.3.7.3.7zm1 7.1a.94.94 0 00-1-1h-4.1c-.6 0-.7.3-.3.7l4.7 4.7c.4.4.7.3.7-.3zm7.1-1a.94.94 0 00-1 1v4.1c0 .5.3.7.7.3l4.7-4.7c.4-.4.3-.7-.3-.7zM67 5.44a3 3 0 01-1.8.6H62a.94.94 0 00-1 1v5.7a.94.94 0 001 1h4.2c.3.2.5.4.8.6l3.5 2.6a.47.47 0 00.8-.4V3.14a.47.47 0 00-.8-.4z"/><path class="cls-12" d="M73.9 2.14s3.9-.8 3.9 7.7-3.9 7.8-3.9 7.8"/><path class="cls-12" d="M72.6 6.04s2.6-.4 2.6 3.8-2.6 3.9-2.6 3.9"/><path class="cls-1" d="M47 5.44a3 3 0 01-1.8.6H42a.94.94 0 00-1 1v5.7a.94.94 0 001 1h4.2c.3.2.5.4.8.6l3.5 2.6a.47.47 0 00.8-.4V3.14a.47.47 0 00-.8-.4z"/><path d="M52.8 6.64l5.4 5.4m-5.4 0l5.4-5.4" stroke-width="2" stroke-linecap="round" stroke="#fff" fill="#fff"/><path d="M128.7 8.24c-6.2-4.2-6.5 7.8 0 3.9m6.5-3.9c-6.2-4.2-6.5 7.8 0 3.9" stroke="#fff" fill="#fff"/><path class="cls-1" d="M122.2 3.04h15.7v13.1h-15.7zm-1.4-1.4v15.7h18.3V1.64zm57.2 7.4a.81.81 0 01-.9.7c-.1 0-.2 0-.2-.1l-4.9-1.8c-.5-.2-.6-.6-.1-.8l6.2-3.6c.5-.3.8-.1.7.5l-.8 5.1z"/><path class="cls-1" d="M169.4 15.54a5.92 5.92 0 01-2.9-.7 5.77 5.77 0 01-3.2-5.2 6.21 6.21 0 016.3-6 6.15 6.15 0 015.6 4.1l.1-.1 2.1 1.1a8.1 8.1 0 00-9.1-6.9 8.24 8.24 0 00-7 7.9 8.06 8.06 0 004.3 7 10.21 10.21 0 003.8 1 8.24 8.24 0 006.6-3.3l-1.8-.9a7 7 0 01-4.8 2zm34-12.7a1.54 1.54 0 011.5 1.5 1.5 1.5 0 11-3 0 1.47 1.47 0 011.5-1.5zm5.1 0h8.5a1.47 1.47 0 011.5 1.5 1.54 1.54 0 01-1.5 1.5h-8.5a1.47 1.47 0 01-1.5-1.5 1.37 1.37 0 011.5-1.5zm-5.1 5a1.5 1.5 0 11-1.5 1.5 1.47 1.47 0 011.5-1.5zm5.1 0h8.5a1.47 1.47 0 011.5 1.5 1.54 1.54 0 01-1.5 1.5h-8.5a1.47 1.47 0 01-1.5-1.5 1.37 1.37 0 011.5-1.5zm-5.1 5a1.5 1.5 0 11-1.5 1.5 1.47 1.47 0 011.5-1.5zm5.1 0h8.5a1.47 1.47 0 011.5 1.5 1.54 1.54 0 01-1.5 1.5h-8.5a1.47 1.47 0 01-1.5-1.5 1.37 1.37 0 011.5-1.5zm46-4.71a.52.52 0 01.2.8c-.1.1-.1.2-.2.2l-11.4 7c-.5.3-.8.1-.8-.5V1.64c0-.5.4-.8.8-.5zm3.85-7.79h2.2a.94.94 0 011 1v14a.94.94 0 01-1 1h-2.2a.94.94 0 01-1-1v-14a1 1 0 011-1zm27.56.79c.4-.3.8 0 .8.5v14.01c0 .6-.3.8-.8.5l-11.4-7c-.1 0-.1-.1-.2-.2a.52.52 0 01.2-.8zM268.35.34h2.2a.94.94 0 011 1v14a.94.94 0 01-1 1h-2.2a.94.94 0 01-1-1v-14a1 1 0 011-1z"/><path class="cls-15" d="M198 9.04a.81.81 0 01-.9.7c-.1 0-.2 0-.2-.1l-4.9-1.8c-.5-.2-.6-.6-.1-.8l6.2-3.6c.5-.3.8-.1.7.5l-.8 5.1z"/><path class="cls-15" d="M194.28 3.41a8.15 8.15 0 00-2.78-1.37 8 8 0 00-3.19-.21 8.28 8.28 0 00-6.41 5.06 8.1 8.1 0 00-.59 2.84 7.54 7.54 0 00.31 2.12 7.94 7.94 0 00.87 1.94 8.31 8.31 0 003.13 2.94 8.91 8.91 0 00.92.4 9.7 9.7 0 00.95.29q.48.12 1 .2t1 .11a8.28 8.28 0 001.9-.22 8.14 8.14 0 001.77-.64 8.25 8.25 0 001.58-1 8.59 8.59 0 001.26-1.43l-.45-.22-.45-.22-.45-.22-.45-.22a6.58 6.58 0 01-1 .82 7.15 7.15 0 01-1.17.63 7.05 7.05 0 01-1.28.41 6.45 6.45 0 01-1.34.14 7 7 0 01-.75 0 6.23 6.23 0 01-.74-.12 5.61 5.61 0 01-.72-.22 5.22 5.22 0 01-.69-.32 5.83 5.83 0 01-1.34-.93 5.73 5.73 0 01-1.64-2.67 5.92 5.92 0 01-.22-1.6 6.09 6.09 0 011.91-4.28 6.28 6.28 0 012-1.27 6.46 6.46 0 012.38-.51 6.33 6.33 0 013.4 1.18 8.46 8.46 0 011 .95l.48-.25.48-.25.35-.23.35-.23"/><path d="M223.41 2.84a1.54 1.54 0 011.5 1.5 1.5 1.5 0 01-3 0 1.47 1.47 0 011.5-1.5zm5.1 0H237a1.47 1.47 0 011.5 1.5 1.54 1.54 0 01-1.5 1.5h-8.5a1.47 1.47 0 01-1.5-1.5 1.37 1.37 0 011.51-1.5zm-5.1 5a1.5 1.5 0 11-1.5 1.5 1.47 1.47 0 011.5-1.5zm5.1 0H237a1.47 1.47 0 011.5 1.5 1.54 1.54 0 01-1.5 1.5h-8.5a1.47 1.47 0 01-1.5-1.5 1.37 1.37 0 011.51-1.5zm-5.1 5a1.5 1.5 0 11-1.5 1.5 1.47 1.47 0 011.5-1.5zm5.1 0H237a1.47 1.47 0 011.5 1.5 1.54 1.54 0 01-1.5 1.5h-8.5a1.47 1.47 0 01-1.5-1.5 1.37 1.37 0 011.51-1.5z" fill="#fff" opacity=".6"/></svg>